# xmcd
#
# Track frame offsets:
#	150
#	23105
#	39615
#	58152
#	77357
#	103917
#	124232
#	144555
#	174465
#
# Disc length: 2450 seconds
#
# Revision: 1
# Processed by: cddbd v1.5.1PL0 Copyright (c) Steve Scherf et al.
# Submitted via: CDex 1.50Beta5
#
DISCID=77099009
DTITLE=浅川マキ - 浅川マキの世界 Disc 8
DYEAR=1990
DGENRE=Pop
TTITLE0=KEEP ON KEEP ON
TTITLE1=憂愁
TTITLE2=こぼれる黄金の砂
TTITLE3=放し飼い
TTITLE4=MUSIC LOVE
TTITLE5=あなたの中を旅したい
TTITLE6=あんたが古いブルースを歌えと言うから
TTITLE7=ZERO HOUR
TTITLE8=HERE TO STAY
EXTD=
EXTT0=
EXTT1=
EXTT2=
EXTT3=
EXTT4=
EXTT5=
EXTT6=
EXTT7=
EXTT8=
PLAYORDER=
